<svg aria-hidden="true" style="position:absolute;width:0;height:0;overflow:hidden" xmlns="http://www.w3.org/2000/svg">
<defs>
<symbol id="icon-burger" viewBox="0 0 43 32">
<path d="M.001 0h42.666v5.333H.001V0zm0 13.333h42.666v5.333H.001v-5.333zm0 13.333h42.666v5.333H.001v-5.333z"/>
</symbol>
<symbol id="icon-cross" viewBox="0 0 32 32">
<path d="M28 .002 15.999 12 4.001.002l-4 3.999 11.998 11.998L.001 27.997l4 4 11.998-11.999L28 31.997l3.999-4-11.998-11.998L31.999 4.001 28 .002z"/>
</symbol>
<symbol id="icon-instagram" viewBox="0 0 31 32">
<path d="M15.607 2.737c4.173 0 4.667.019 6.308.092 1.526.067 2.348.323 2.898.537.726.281 1.25.623 1.793 1.165.55.55.884 1.068 1.171 1.794.214.55.47 1.378.537 2.898.073 1.648.092 2.142.092 6.308s-.019 4.667-.092 6.309c-.067 1.526-.323 2.348-.537 2.898a4.831 4.831 0 0 1-1.165 1.793c-.55.55-1.068.884-1.793 1.171-.55.214-1.379.469-2.898.537-1.648.073-2.142.092-6.309.092s-4.667-.019-6.308-.092c-1.526-.067-2.348-.323-2.898-.537a4.833 4.833 0 0 1-1.794-1.166 4.899 4.899 0 0 1-1.171-1.793c-.214-.55-.47-1.379-.537-2.898-.073-1.648-.092-2.142-.092-6.309s.019-4.667.092-6.308c.067-1.526.323-2.348.537-2.898a4.856 4.856 0 0 1 1.165-1.794A4.894 4.894 0 0 1 6.4 3.365c.55-.214 1.378-.47 2.898-.537 1.641-.073 2.137-.092 6.309-.092zm0-2.812c-4.24 0-4.77.019-6.436.092-1.659.073-2.8.342-3.788.726a7.602 7.602 0 0 0-2.769 1.806A7.64 7.64 0 0 0 .808 5.312C.423 6.307.155 7.441.082 9.1c-.073 1.672-.092 2.202-.092 6.442s.019 4.77.092 6.436c.073 1.659.342 2.8.726 3.788.403 1.031.933 1.903 1.806 2.769a7.626 7.626 0 0 0 2.763 1.8c.995.385 2.129.653 3.788.726 1.665.073 2.196.092 6.436.092s4.771-.019 6.436-.092c1.659-.073 2.8-.342 3.788-.726 1.025-.396 1.898-.933 2.763-1.8s1.404-1.738 1.8-2.763c.385-.995.653-2.129.726-3.788.073-1.665.092-2.196.092-6.436s-.019-4.77-.092-6.436c-.073-1.659-.342-2.8-.726-3.788a7.338 7.338 0 0 0-1.787-2.776 7.626 7.626 0 0 0-2.763-1.8C24.843.363 23.709.095 22.05.022c-1.671-.079-2.202-.098-6.442-.098l-.001.001z"/>
<path d="M15.607 7.52c-4.429 0-8.023 3.593-8.023 8.023s3.593 8.023 8.023 8.023a8.023 8.023 0 0 0 0-16.046zm0 13.226a5.204 5.204 0 1 1 0-10.408 5.204 5.204 0 0 1 0 10.408zM25.818 7.203a1.872 1.872 0 1 1-3.745.001 1.872 1.872 0 0 1 3.745-.001z"/>
</symbol>
<symbol id="icon-linkedin" viewBox="0 0 30 32">
<path d="M27.617-.125H2.862A2.864 2.864 0 0 0 .006 2.731v24.755a2.864 2.864 0 0 0 2.856 2.856h24.755a2.864 2.864 0 0 0 2.856-2.856V2.731a2.864 2.864 0 0 0-2.856-2.856zM11.431 24.631H7.622v-13.33h3.809v13.33zM9.527 9.397c-1.053 0-1.904-.851-1.904-1.904s.851-1.904 1.904-1.904 1.904.851 1.904 1.904-.851 1.904-1.904 1.904zm15.234 15.234h-3.809v-7.617c0-1.053-.851-1.904-1.904-1.904s-1.904.851-1.904 1.904v7.617h-3.809v-13.33h3.809v2.362c.785-1.077 1.987-2.362 3.332-2.362 2.369 0 4.285 2.131 4.285 4.761v8.569z"/>
</symbol>
<symbol id="icon-star" viewBox="0 0 32 32">
<path d="M7.228 19.718 4.845 30.039a1.596 1.596 0 0 0 2.446 1.691l8.71-5.807 8.71 5.807a1.604 1.604 0 0 0 1.829-.04 1.606 1.606 0 0 0 .598-1.729l-2.926-10.238 7.256-6.53a1.6 1.6 0 0 0-.944-2.784l-9.12-.726L17.458.947a1.6 1.6 0 0 0-1.457-.945 1.591 1.591 0 0 0-1.457.945l-3.946 8.736-9.12.725A1.597 1.597 0 0 0 .1 11.459c-.104.289-.123.602-.055.902s.222.573.443.787l6.741 6.57z"/>
</symbol>
<symbol id="icon-star-hollow" viewBox="0 0 32 32">
<path d="M7.228 19.715l-2.384 10.321c-0.074 0.312-0.052 0.64 0.064 0.94s0.318 0.558 0.582 0.74c0.264 0.183 0.577 0.281 0.898 0.283s0.635-0.093 0.902-0.272l8.71-5.807 8.71 5.807c0.273 0.181 0.594 0.274 0.921 0.267s0.644-0.114 0.908-0.307 0.463-0.462 0.57-0.771c0.107-0.309 0.116-0.644 0.028-0.958l-2.926-10.238 7.256-6.53c0.232-0.209 0.398-0.482 0.477-0.785s0.068-0.622-0.033-0.918c-0.1-0.296-0.285-0.556-0.532-0.749s-0.544-0.308-0.856-0.332l-9.12-0.726-3.946-8.736c-0.126-0.281-0.33-0.52-0.589-0.688s-0.56-0.257-0.868-0.257c-0.308 0-0.61 0.089-0.868 0.257s-0.463 0.406-0.589 0.688l-3.946 8.736-9.12 0.725c-0.306 0.024-0.599 0.136-0.844 0.323s-0.43 0.439-0.534 0.728c-0.104 0.289-0.123 0.602-0.055 0.902s0.222 0.573 0.443 0.787l6.741 6.57zM11.791 12.795c0.286-0.023 0.56-0.121 0.794-0.286s0.42-0.39 0.537-0.651l2.878-6.368 2.878 6.368c0.117 0.261 0.303 0.486 0.537 0.651s0.508 0.264 0.794 0.286l6.354 0.504-5.232 4.709c-0.454 0.41-0.635 1.040-0.469 1.628l2.004 7.015-5.976-3.985c-0.262-0.176-0.571-0.27-0.887-0.27s-0.625 0.094-0.887 0.27l-6.245 4.164 1.68-7.272c0.062-0.267 0.053-0.546-0.024-0.81s-0.221-0.502-0.418-0.694l-4.86-4.738 6.543-0.521z">
</path>
</symbol>
<symbol id="icon-youtube" viewBox="0 0 30 32">
<path d="M29.843 7.896a3.812 3.812 0 0 0-2.682-2.689c-2.384-.655-11.921-.665-11.921-.665s-9.536-.011-11.921.615A3.897 3.897 0 0 0 .631 7.864c-.629 2.384-.635 7.328-.635 7.328s-.006 4.969.618 7.328a3.815 3.815 0 0 0 2.684 2.687c2.408.655 11.919.665 11.919.665s9.537.011 11.921-.614a3.826 3.826 0 0 0 2.689-2.684c.63-2.382.635-7.325.635-7.325s.03-4.97-.62-7.354zM12.189 19.773l.008-9.134 7.926 4.575-7.934 4.559z"/>
</symbol>
</defs>
</svg>