<svg aria-hidden="true" style="position:absolute;width:0;height:0;overflow:hidden" xmlns="http://www.w3.org/2000/svg"><defs><symbol id="icon-logo" viewBox="0 0 85 32"><path d="M13.758.264c-.167 0-.344 0-.509.02-1.923.16-3.69.977-4.949 2.466-1.37 1.62-1.701 3.326-1.685 5.388l-3.664-.006c-.164 0-.334-.005-.506-.01-.478-.013-.975-.027-1.422.055-.27.05-.506.181-.696.379-.333.346-.341.783-.319 1.231.034.706.095 1.413.155 2.12.033.384.066.769.095 1.152l.608 7.858.296 3.795c.015.187.026.376.038.566.042.679.084 1.368.263 2.018a6.085 6.085 0 0 0 4.38 4.27c.821.198 1.776.176 2.672.155.267-.006.528-.012.78-.013h9.24c.235 0 .478.006.723.012.796.019 1.625.039 2.369-.135a6.192 6.192 0 0 0 2.868-1.575c.711-.705 1.278-1.646 1.526-2.619.19-.744.237-1.56.284-2.352.015-.255.03-.508.049-.755l.404-5.204.504-6.39c.024-.316.056-.635.088-.954.069-.693.138-1.391.136-2.076-.001-.421-.09-.814-.392-1.127-.208-.216-.547-.321-.835-.368-.431-.07-.903-.058-1.36-.046a16.97 16.97 0 0 1-.498.009c-1.152-.002-2.305.002-3.457.012l-.05.001c.027-2.208-.465-4.103-2.052-5.718A7.077 7.077 0 0 0 13.78.261h-.024zm6.983 12.596.062.004.005.012a.685.685 0 0 1 .009.023l.003.006a.133.133 0 0 1 .013.072c-.02 2.708-.745 6.194-2.666 8.177-1.78 1.836-4.543 2.737-7.063 2.787 1.174-2.208 3.06-4.302 5.006-5.856.301-.24.616-.458.931-.675.203-.14.406-.28.605-.426.194-.142.454-.335.482-.594.025-.239-.102-.424-.251-.594-.209-.121-.362-.172-.601-.102-.339.1-.681.351-.99.577-.082.06-.161.118-.238.172a20.715 20.715 0 0 0-6.07 6.725c-.051-2.166.443-3.98 1.771-5.722 1.993-2.614 5.808-4.151 8.993-4.585zM1.375 9.489h24.752c-.088.834-.145 1.675-.202 2.515-.032.468-.063.936-.1 1.402l-.666 8.352-.249 3.078a54.35 54.35 0 0 0-.031.402c-.04.531-.08 1.067-.183 1.587-.105.534-.309.997-.586 1.463a5.277 5.277 0 0 1-.347.467c-.718.857-1.895 1.496-3.014 1.581-.609.046-1.236.035-1.857.023-.269-.005-.536-.01-.801-.01H8.87c-.197 0-.398.004-.6.008-.62.013-1.254.026-1.85-.077a4.41 4.41 0 0 1-2.113-.997 4.612 4.612 0 0 1-1.483-2.334c-.167-.604-.209-1.247-.25-1.879-.01-.159-.021-.317-.033-.473l-.243-3.131L1.376 9.49zm19.916 1.92-.018.002c-3.757.435-8.035 1.98-10.463 5.024-1.561 1.956-2.414 4.5-2.132 7.006.062.55.186 1.076.366 1.599l-.073.185c-.308.775-1.025 2.576-.776 3.109a.613.613 0 0 0 .378.308c.066.021.132.032.2.04.21-.035.405-.078.532-.266.136-.203.275-.689.395-1.105.057-.198.109-.381.154-.509.154-.438.33-.87.505-1.3l.002-.005.061-.151c3.098.009 6.407-.961 8.649-3.172 2.507-2.474 3.138-6.463 3.143-9.838 0-.266-.018-.582-.213-.786-.12-.125-.3-.163-.467-.159-.081.002-.161.01-.242.019zm-7.835-9.791c.12-.007.241-.014.36-.013 1.472.01 2.945.669 3.979 1.706 1.408 1.412 1.696 2.911 1.699 4.828l-11.459.005c-.046-1.648.219-3.153 1.3-4.454 1.038-1.25 2.52-1.928 4.12-2.071z"/><path d="m20.803 12.863-.062-.004c-3.184.434-7 1.97-8.993 4.585C10.42 19.186 9.927 21 9.977 23.166a20.727 20.727 0 0 1 6.07-6.725c.076-.053.156-.112.238-.172.309-.226.65-.477.989-.577.239-.07.392-.019.601.102.149.17.276.356.251.594-.027.259-.288.452-.482.594-.199.146-.402.286-.605.426-.315.217-.63.434-.931.675-1.946 1.555-3.832 3.649-5.006 5.856 2.52-.05 5.284-.951 7.063-2.787 1.922-1.983 2.646-5.469 2.666-8.177.001-.042-.002-.046-.013-.072l-.01-.023-.007-.017zm.469-1.452.018-.002c.08-.009.161-.017.242-.019.167-.004.348.034.467.159.195.204.213.519.213.786-.005 3.376-.636 7.364-3.143 9.838-2.241 2.211-5.55 3.181-8.649 3.172l-.061.151-.002.005c-.175.431-.35.862-.505 1.3-.045.128-.097.31-.154.509-.119.416-.258.903-.395 1.105-.127.188-.321.232-.532.266a1.143 1.143 0 0 1-.2-.04.613.613 0 0 1-.378-.308c-.249-.533.467-2.334.776-3.109l.073-.185a7.432 7.432 0 0 1-.366-1.599c-.282-2.505.571-5.05 2.132-7.006 2.429-3.043 6.706-4.589 10.463-5.024z"/><path d="m21.291 11.409-.018.002c-3.757.435-8.035 1.98-10.463 5.024-1.561 1.956-2.414 4.5-2.132 7.006.062.55.186 1.076.366 1.599l-.073.185c-.308.775-1.025 2.576-.776 3.109a.613.613 0 0 0 .378.308c.066.021.132.032.2.04.21-.035.405-.078.532-.266.136-.203.275-.689.394-1.105.057-.198.109-.381.154-.509.154-.439.33-.87.505-1.3l.002-.005.061-.151c3.098.009 6.407-.961 8.649-3.172 2.507-2.474 3.138-6.463 3.143-9.838 0-.266-.018-.582-.213-.786-.12-.125-.3-.163-.467-.159-.081.002-.161.01-.242.019zm-.55 1.451.062.004.007.017.01.023a.133.133 0 0 1 .013.072c-.02 2.708-.745 6.194-2.666 8.177-1.78 1.836-4.543 2.737-7.063 2.787 1.174-2.208 3.06-4.302 5.006-5.856.301-.24.616-.458.931-.675.203-.14.406-.28.605-.426.194-.142.454-.335.482-.594.025-.239-.102-.424-.251-.594-.209-.121-.362-.172-.601-.102-.339.1-.681.351-.989.577-.082.06-.161.118-.238.172a20.73 20.73 0 0 0-6.071 6.725c-.051-2.166.443-3.98 1.771-5.722 1.993-2.614 5.808-4.151 8.993-4.585zM69.669 20.584a4.822 4.822 0 1 0-9.637.34 4.822 4.822 0 0 0 9.636-.34zm-4.821-3.202c.776.031 1.406.218 1.997.742.705.624 1.099 1.526 1.15 2.46s-.242 1.883-.879 2.579c-.582.636-1.307.921-2.157.964-.775-.008-1.415-.129-2.027-.638-.715-.594-1.119-1.474-1.195-2.393-.079-.955.171-1.942.805-2.675.629-.726 1.371-.976 2.305-1.04zM56.268 20.185a4.82 4.82 0 1 0-9.572 1.148 4.82 4.82 0 0 0 9.572-1.148zm-5.214-2.764c.772-.063 1.471.018 2.123.467.732.503 1.192 1.281 1.345 2.149.173.986.01 2.041-.583 2.863-.519.72-1.169 1.077-2.033 1.215-.79.04-1.488-.008-2.153-.478a3.26 3.26 0 0 1-1.341-2.145c-.161-.956.032-2.056.602-2.851.501-.698 1.201-1.086 2.04-1.22zM79.778 15.929a4.555 4.555 0 0 0-3.141 1.7c-.871 1.1-1.169 2.494-.998 3.873a4.57 4.57 0 0 0 1.721 3.068c1.138.884 2.58 1.108 3.986.916.813-.111 2.036-.501 2.556-1.178a.879.879 0 0 0 .186-.662.642.642 0 0 0-.236-.433c-.159-.119-.372-.134-.561-.097-.263.051-.499.214-.722.368-.047.032-.094.065-.14.095-.982.51-2.07.75-3.15.4a3.01 3.01 0 0 1-1.76-1.53c-.186-.371-.279-.765-.361-1.17h4.633c.193 0 .4.007.612.014.549.018 1.137.036 1.622-.05a.733.733 0 0 0 .37-.196c.228-.222.268-.536.261-.839-.026-1.161-.571-2.305-1.415-3.091-.975-.907-2.151-1.248-3.462-1.189zm.143 1.45a2.881 2.881 0 0 1 1.992.505c.692.492 1.056 1.191 1.202 2.014-.587.007-1.175.005-1.763.004-.294-.001-.588-.002-.881-.001l-3.258.004c.149-.501.322-.957.643-1.377.516-.676 1.232-1.039 2.066-1.149z"/><path d="M53.976 12.484c1.739-.041 3.487-.003 5.227-.006.991-.002 2.257-.082 3.219.017.155.016.278.06.396.163a.832.832 0 0 1 .285.591c.005.202-.119.434-.264.569a.712.712 0 0 1-.391.168c-.401.065-.843.027-1.249.026l-2.159-.004-.001 8.012c.003.675.089 2.148-.013 2.722a.997.997 0 0 1-.221.498.7.7 0 0 1-.516.227c-.207.005-.41-.041-.559-.192-.176-.176-.241-.436-.262-.677-.04-.445-.003-.915.002-1.362.008-.661.002-1.323.001-1.984l.005-7.246c-.718.003-3.203.118-3.712-.113a.654.654 0 0 1-.37-.408.752.752 0 0 1 .065-.614c.122-.221.284-.316.518-.388zM42.602 15.936a5.957 5.957 0 0 1 1.904.173c.662.177 1.675.568 2.017 1.196.094.173.143.38.077.571-.068.195-.253.344-.44.421-.545.223-1.227-.527-1.739-.72-.833-.314-1.835-.297-2.646.082-.745.348-1.28 1.006-1.558 1.771-.322.888-.349 2.045.06 2.911.379.802 1.076 1.362 1.903 1.654.946.335 1.932.156 2.816-.267.274-.148.523-.346.835-.411a.574.574 0 0 1 .458.08.844.844 0 0 1 .329.554.703.703 0 0 1-.173.517c-.517.641-1.669.963-2.452 1.059-1.36.167-2.776-.106-3.865-.974a4.747 4.747 0 0 1-1.801-3.275 4.924 4.924 0 0 1 1.051-3.587 4.736 4.736 0 0 1 3.224-1.755zM71.647 13.503l.081-.003c.241-.008.483.057.654.235.406.425.245 1.856.24 2.442.553.003 1.9-.169 2.315.2.15.134.211.319.212.517.001.192-.049.375-.191.511-.388.367-1.788.223-2.337.219.005 1.177-.154 4.804.209 5.697.586 1.444 1.857.174 2.582.515a.705.705 0 0 1 .34.388c.082.229.009.433-.085.643a2.365 2.365 0 0 1-.049.053c-.438.456-1.261.566-1.865.574-.701.01-1.364-.109-1.882-.628-.374-.375-.607-.889-.721-1.401-.176-.791-.103-1.666-.103-2.473l.002-3.368c-.425 0-.851-.003-1.276-.01a1.36 1.36 0 0 1-.2-.145c-.168-.151-.244-.377-.25-.599a.644.644 0 0 1 .191-.499c.343-.318 1.099-.204 1.535-.196-.001-.613-.136-1.711.096-2.25.103-.239.271-.326.501-.422z"/><path d="M37.917 13.273c-.733-.072-4.318-.046-5.562-.028-.229.003-.441.019-.627.033a5.87 5.87 0 0 1-.414.022s-.495.116-.656.339c-.105.146-.141.331-.166.506-.133.926-.211 1.871-.288 2.813-.041.496-.082.991-.13 1.481l-.472 4.761c-.013.127-.034.301-.059.498-.08.638-.191 1.521-.119 1.873.04.195.143.356.315.457.17.1.363.157.556.19h.002c.4-.001 1.003.005 1.677.012 1.397.015 4.951.032 5.777-.003.165-.007.339-.021.495-.08a.778.778 0 0 0 .462-.44.83.83 0 0 0-.03-.652.656.656 0 0 0-.437-.384h-7.142c.119-1.052.226-2.104.32-3.158l.084-.857.008-.085.217.003c.727.011 4.268.036 4.719-.031.166-.025.32-.066.441-.188a.77.77 0 0 0 .209-.596.764.764 0 0 0-.235-.514.65.65 0 0 0-.337-.155c-.422-.061-3.569-.045-4.364-.035-.213.003-.39.005-.505.005l.362-4.271h3.854c.196 0 .401.007.609.013.503.016 1.024.033 1.492-.04a.726.726 0 0 0 .43-.204.782.782 0 0 0 .217-.581.761.761 0 0 0-.706-.704z"/></symbol></defs></svg>